<mxfile host="app.diagrams.net" modified="2024-04-14T05:39:40.320Z" agent="Mozilla/5.0 (Windows NT 10.0; Win64; x64) AppleWebKit/537.36 (KHTML, like Gecko) Chrome/123.0.0.0 Safari/537.36" etag="_XtqhGZz2tmyomEFP23E" version="24.2.5" type="device">
  <diagram name="Page-1" id="njWOg8QenGgPF7GtcoPt">
    <mxGraphModel dx="1434" dy="1880" grid="1" gridSize="10" guides="1" tooltips="1" connect="1" arrows="1" fold="1" page="1" pageScale="1" pageWidth="850" pageHeight="1100" math="0" shadow="0">
      <root>
        <mxCell id="0" />
        <mxCell id="1" parent="0" />
        <mxCell id="R5fA3wj8_WEJDZadepWY-2" value="&amp;nbsp; &amp;nbsp; &amp;nbsp; &amp;nbsp; &amp;nbsp; &amp;nbsp; &amp;nbsp; &amp;nbsp; &amp;nbsp; &amp;nbsp; &amp;nbsp; &amp;nbsp; &amp;nbsp; &amp;nbsp; &amp;nbsp; &amp;nbsp; &amp;nbsp; &amp;nbsp; &amp;nbsp; &amp;nbsp; &amp;nbsp; &amp;nbsp; &amp;nbsp; &amp;nbsp; &amp;nbsp; &amp;nbsp;&amp;nbsp;&lt;div&gt;&lt;br&gt;&lt;/div&gt;&lt;div&gt;&amp;nbsp; &amp;nbsp; &amp;nbsp; &amp;nbsp; &amp;nbsp; &amp;nbsp; &amp;nbsp; &amp;nbsp; &amp;nbsp; &amp;nbsp; &amp;nbsp; &amp;nbsp; &amp;nbsp; &amp;nbsp; &amp;nbsp; &amp;nbsp; &amp;nbsp; &amp;nbsp; &amp;nbsp; &amp;nbsp; &amp;nbsp; &amp;nbsp; &amp;nbsp; &amp;nbsp; Conftest.py&lt;/div&gt;" style="whiteSpace=wrap;html=1;aspect=fixed;" vertex="1" parent="1">
          <mxGeometry x="120" y="-40" width="610" height="610" as="geometry" />
        </mxCell>
        <mxCell id="R5fA3wj8_WEJDZadepWY-10" style="edgeStyle=orthogonalEdgeStyle;rounded=0;orthogonalLoop=1;jettySize=auto;html=1;entryX=0.5;entryY=0;entryDx=0;entryDy=0;" edge="1" parent="1" source="R5fA3wj8_WEJDZadepWY-3" target="R5fA3wj8_WEJDZadepWY-5">
          <mxGeometry relative="1" as="geometry" />
        </mxCell>
        <mxCell id="R5fA3wj8_WEJDZadepWY-3" value="Sorce&lt;div&gt;python file&lt;/div&gt;&lt;div&gt;java file&amp;nbsp;&lt;/div&gt;&lt;div&gt;developer&lt;/div&gt;" style="rounded=0;whiteSpace=wrap;html=1;fillColor=#ffe6cc;strokeColor=#d79b00;" vertex="1" parent="1">
          <mxGeometry x="190" y="-20" width="120" height="60" as="geometry" />
        </mxCell>
        <mxCell id="R5fA3wj8_WEJDZadepWY-9" style="edgeStyle=orthogonalEdgeStyle;rounded=0;orthogonalLoop=1;jettySize=auto;html=1;entryX=1;entryY=0;entryDx=0;entryDy=0;" edge="1" parent="1" source="R5fA3wj8_WEJDZadepWY-5" target="R5fA3wj8_WEJDZadepWY-6">
          <mxGeometry relative="1" as="geometry" />
        </mxCell>
        <mxCell id="R5fA3wj8_WEJDZadepWY-17" value="" style="edgeStyle=orthogonalEdgeStyle;rounded=0;orthogonalLoop=1;jettySize=auto;html=1;" edge="1" parent="1" source="R5fA3wj8_WEJDZadepWY-5">
          <mxGeometry relative="1" as="geometry">
            <mxPoint x="380" y="115" as="targetPoint" />
          </mxGeometry>
        </mxCell>
        <mxCell id="R5fA3wj8_WEJDZadepWY-5" value="&lt;div&gt;&lt;br&gt;&lt;/div&gt;&lt;div&gt;Test Folder&lt;/div&gt;&lt;div&gt;test_files.py&lt;/div&gt;&lt;div&gt;test_cases(fucntional&lt;/div&gt;&lt;div&gt;class&lt;/div&gt;" style="rounded=1;whiteSpace=wrap;html=1;fillColor=#ffe6cc;strokeColor=#d79b00;" vertex="1" parent="1">
          <mxGeometry x="190" y="80" width="110" height="70" as="geometry" />
        </mxCell>
        <mxCell id="R5fA3wj8_WEJDZadepWY-7" style="edgeStyle=orthogonalEdgeStyle;rounded=0;orthogonalLoop=1;jettySize=auto;html=1;entryX=0.5;entryY=1;entryDx=0;entryDy=0;" edge="1" parent="1" source="R5fA3wj8_WEJDZadepWY-6" target="R5fA3wj8_WEJDZadepWY-5">
          <mxGeometry relative="1" as="geometry" />
        </mxCell>
        <mxCell id="R5fA3wj8_WEJDZadepWY-12" style="edgeStyle=orthogonalEdgeStyle;rounded=0;orthogonalLoop=1;jettySize=auto;html=1;" edge="1" parent="1" source="R5fA3wj8_WEJDZadepWY-6" target="R5fA3wj8_WEJDZadepWY-11">
          <mxGeometry relative="1" as="geometry" />
        </mxCell>
        <mxCell id="R5fA3wj8_WEJDZadepWY-6" value="pythonfile&lt;div&gt;conftest.py&lt;/div&gt;" style="shape=process;whiteSpace=wrap;html=1;backgroundOutline=1;fillColor=#f8cecc;strokeColor=#b85450;" vertex="1" parent="1">
          <mxGeometry x="180" y="200" width="130" height="60" as="geometry" />
        </mxCell>
        <mxCell id="R5fA3wj8_WEJDZadepWY-8" value="setup&lt;div&gt;teardown&lt;/div&gt;" style="text;html=1;align=center;verticalAlign=middle;resizable=0;points=[];autosize=1;strokeColor=none;fillColor=none;" vertex="1" parent="1">
          <mxGeometry x="340" y="235" width="70" height="40" as="geometry" />
        </mxCell>
        <mxCell id="R5fA3wj8_WEJDZadepWY-15" value="" style="edgeStyle=orthogonalEdgeStyle;rounded=0;orthogonalLoop=1;jettySize=auto;html=1;" edge="1" parent="1" source="R5fA3wj8_WEJDZadepWY-11" target="R5fA3wj8_WEJDZadepWY-14">
          <mxGeometry relative="1" as="geometry" />
        </mxCell>
        <mxCell id="R5fA3wj8_WEJDZadepWY-11" value="Fixture&amp;nbsp;" style="text;html=1;align=center;verticalAlign=middle;resizable=0;points=[];autosize=1;strokeColor=none;fillColor=none;" vertex="1" parent="1">
          <mxGeometry x="400" y="218" width="60" height="30" as="geometry" />
        </mxCell>
        <mxCell id="R5fA3wj8_WEJDZadepWY-14" value="request" style="text;html=1;align=center;verticalAlign=middle;resizable=0;points=[];autosize=1;strokeColor=none;fillColor=none;" vertex="1" parent="1">
          <mxGeometry x="540" y="218" width="60" height="30" as="geometry" />
        </mxCell>
        <mxCell id="R5fA3wj8_WEJDZadepWY-19" style="edgeStyle=orthogonalEdgeStyle;rounded=0;orthogonalLoop=1;jettySize=auto;html=1;" edge="1" parent="1" source="R5fA3wj8_WEJDZadepWY-18" target="R5fA3wj8_WEJDZadepWY-14">
          <mxGeometry relative="1" as="geometry" />
        </mxCell>
        <mxCell id="R5fA3wj8_WEJDZadepWY-18" value="def test_func(fixture_name)" style="shape=parallelogram;perimeter=parallelogramPerimeter;whiteSpace=wrap;html=1;fixedSize=1;" vertex="1" parent="1">
          <mxGeometry x="370" y="85" width="220" height="60" as="geometry" />
        </mxCell>
        <mxCell id="R5fA3wj8_WEJDZadepWY-20" value="&lt;div&gt;@pytest.fixrure&lt;/div&gt;def fixture_name(request):" style="whiteSpace=wrap;html=1;aspect=fixed;" vertex="1" parent="1">
          <mxGeometry x="470" y="275" width="210" height="210" as="geometry" />
        </mxCell>
        <mxCell id="R5fA3wj8_WEJDZadepWY-21" style="edgeStyle=orthogonalEdgeStyle;rounded=0;orthogonalLoop=1;jettySize=auto;html=1;entryX=-0.041;entryY=0.214;entryDx=0;entryDy=0;entryPerimeter=0;" edge="1" parent="1" source="R5fA3wj8_WEJDZadepWY-11" target="R5fA3wj8_WEJDZadepWY-20">
          <mxGeometry relative="1" as="geometry" />
        </mxCell>
        <mxCell id="R5fA3wj8_WEJDZadepWY-22" value="C" style="whiteSpace=wrap;html=1;aspect=fixed;" vertex="1" parent="1">
          <mxGeometry x="65" y="740" width="720" height="720" as="geometry" />
        </mxCell>
        <mxCell id="R5fA3wj8_WEJDZadepWY-25" style="edgeStyle=orthogonalEdgeStyle;rounded=0;orthogonalLoop=1;jettySize=auto;html=1;" edge="1" parent="1" source="R5fA3wj8_WEJDZadepWY-23" target="R5fA3wj8_WEJDZadepWY-24">
          <mxGeometry relative="1" as="geometry" />
        </mxCell>
        <mxCell id="R5fA3wj8_WEJDZadepWY-23" value="Source Folder&lt;div&gt;python&amp;nbsp;&lt;/div&gt;&lt;div&gt;java file&lt;/div&gt;&lt;div&gt;developer&lt;/div&gt;" style="rounded=1;whiteSpace=wrap;html=1;fillColor=#fff2cc;strokeColor=#d6b656;" vertex="1" parent="1">
          <mxGeometry x="90" y="780" width="200" height="110" as="geometry" />
        </mxCell>
        <mxCell id="R5fA3wj8_WEJDZadepWY-27" style="edgeStyle=orthogonalEdgeStyle;rounded=0;orthogonalLoop=1;jettySize=auto;html=1;" edge="1" parent="1" source="R5fA3wj8_WEJDZadepWY-24" target="R5fA3wj8_WEJDZadepWY-26">
          <mxGeometry relative="1" as="geometry" />
        </mxCell>
        <mxCell id="R5fA3wj8_WEJDZadepWY-29" style="edgeStyle=orthogonalEdgeStyle;rounded=0;orthogonalLoop=1;jettySize=auto;html=1;entryX=0;entryY=0.5;entryDx=0;entryDy=0;" edge="1" parent="1" source="R5fA3wj8_WEJDZadepWY-24" target="R5fA3wj8_WEJDZadepWY-28">
          <mxGeometry relative="1" as="geometry" />
        </mxCell>
        <mxCell id="R5fA3wj8_WEJDZadepWY-24" value="Test Folder&lt;div&gt;all the test file.py&lt;/div&gt;&lt;div&gt;inside the test file&amp;nbsp;&lt;/div&gt;&lt;div&gt;write test cases&lt;/div&gt;" style="rounded=1;whiteSpace=wrap;html=1;fillColor=#d5e8d4;strokeColor=#82b366;" vertex="1" parent="1">
          <mxGeometry x="100" y="960" width="170" height="130" as="geometry" />
        </mxCell>
        <mxCell id="R5fA3wj8_WEJDZadepWY-26" value="Conftest&lt;div&gt;@pytest.fixture(scope=&#39;class&#39;):&lt;/div&gt;&lt;div&gt;def fixture_name(request)&lt;/div&gt;" style="rounded=0;whiteSpace=wrap;html=1;" vertex="1" parent="1">
          <mxGeometry x="120" y="1220" width="310" height="120" as="geometry" />
        </mxCell>
        <mxCell id="R5fA3wj8_WEJDZadepWY-28" value="test_file1.py&lt;div&gt;&lt;br&gt;&lt;/div&gt;&lt;div&gt;@pytest.mark.usefixture(fixture_name)&lt;/div&gt;&lt;div&gt;class TestLoginPage:&lt;/div&gt;&lt;div&gt;&lt;br&gt;&lt;/div&gt;&lt;div&gt;def test_case1&lt;/div&gt;&lt;div&gt;&lt;br&gt;&lt;/div&gt;&lt;div&gt;def test case2&lt;/div&gt;&lt;div&gt;&lt;br&gt;&lt;/div&gt;&lt;div&gt;def test case3&lt;/div&gt;&lt;div&gt;&lt;br&gt;&lt;/div&gt;" style="whiteSpace=wrap;html=1;aspect=fixed;" vertex="1" parent="1">
          <mxGeometry x="380" y="880" width="290" height="290" as="geometry" />
        </mxCell>
        <mxCell id="R5fA3wj8_WEJDZadepWY-30" value="def break&lt;div&gt;&lt;br&gt;&lt;/div&gt;&lt;div&gt;&lt;br&gt;&lt;/div&gt;&lt;div&gt;def acc&lt;/div&gt;&lt;div&gt;&lt;br&gt;&lt;/div&gt;&lt;div&gt;&lt;br&gt;&lt;/div&gt;&lt;div&gt;def clust&lt;/div&gt;&lt;div&gt;&lt;br&gt;&lt;/div&gt;&lt;div&gt;def engine&lt;/div&gt;&lt;div&gt;&lt;br&gt;&lt;/div&gt;&lt;div&gt;def seat&lt;/div&gt;&lt;div&gt;&lt;br&gt;&lt;/div&gt;&lt;div&gt;def windseel&lt;/div&gt;&lt;div&gt;&lt;br&gt;&lt;/div&gt;&lt;div&gt;def window&lt;/div&gt;" style="ellipse;whiteSpace=wrap;html=1;" vertex="1" parent="1">
          <mxGeometry x="30" y="1580" width="290" height="250" as="geometry" />
        </mxCell>
        <mxCell id="R5fA3wj8_WEJDZadepWY-31" value="car" style="text;html=1;align=center;verticalAlign=middle;resizable=0;points=[];autosize=1;strokeColor=none;fillColor=none;" vertex="1" parent="1">
          <mxGeometry x="230" y="1580" width="40" height="30" as="geometry" />
        </mxCell>
      </root>
    </mxGraphModel>
  </diagram>
</mxfile>
